<svg width="40" height="32" viewBox="0 0 40 32" fill="none" xmlns="http://www.w3.org/2000/svg">
<g clip-path="url(#clip0_180_700)">
<path d="M20 0C33.6187 0 40 10.6125 40 13.0063V20.3813C40 21.9706 39.0594 23.4088 37.6031 24.0456L32.3156 26.3587L32.7182 22.9081L36.4007 21.2969C36.765 21.1437 37 20.7813 37 20.3813V13.0063C37 11.4 30.8813 3 20 3C9.00625 3 3 11.4438 3 13.0063V20.3813C3 20.7786 3.23525 21.1381 3.59912 21.2975L7.28162 22.9088L7.68419 26.3594L2.39669 24.0462C0.943749 23.4125 0 21.975 0 20.3813V13.0063C0 10.4875 6.61875 0 20 0ZM7 16.5C7 15.6687 7.66875 15 8.5 15H31.5562C32.3312 15 33 15.6688 33 16.4438C33 17.2188 32.3312 18 31.5562 18H31.0769L29.5481 30.9125C29.5285 31.0773 29.3017 32.0019 28.3062 32.0019C27.9703 32.0019 27.64 31.8674 27.4 31.6191L24.1812 28.2803L20.9625 31.6191C20.6687 31.8625 20.3438 32 20 32C19.6562 32 19.33 31.8614 19.0938 31.6169L15.875 28.2782L12.6562 31.6169C12.4188 31.8625 12.0875 32 11.75 32C10.7544 32 10.5275 31.0756 10.5075 30.9106L8.98125 18H8.50187C7.66875 18 7 17.3313 7 16.5ZM17.6688 18L20 20.4188L22.3312 18H17.6688ZM28.3062 19.6313L28.5562 18H26.3594L28.3062 19.6313ZM27.3188 28.0125L27.7312 24.5375L25.8512 26.4875L27.3188 28.0125ZM24.1812 24.7L26.9937 21.7812L24.3475 19.5462L21.7794 22.2106L24.1812 24.7ZM20 28.9813L22.4 26.4875L20 23.9438L17.5994 26.4344L20 28.9813ZM18.275 22.2125L15.7069 19.5481L13.0606 21.7831L15.8744 24.7025L18.275 22.2125ZM12.6812 28.0125L14.15 26.4888L12.27 24.5387L12.6812 28.0125ZM11.6938 19.6313L13.6938 18H11.4969L11.6938 19.6313ZM10 13V10.5C10 9.11875 11.1187 8 12.5 8H27.5C28.8813 8 30 9.11875 30 10.5V13H27V11H13V13H10Z" fill="#0A253D"/>
</g>
<defs>
<clipPath id="clip0_180_700">
<rect width="40" height="32" fill="white" transform="matrix(-1 0 0 1 40 0)"/>
</clipPath>
</defs>
</svg>
