<svg width="41" height="32" viewBox="0 0 41 32" fill="none" xmlns="http://www.w3.org/2000/svg">
<g clip-path="url(#clip0_180_683)">
<path d="M34.2062 9H30.075C30.3438 8.3875 30.5 7.7125 30.5 7C30.5 4.25938 28.2687 2 25.5312 2C23.4813 2 22.0938 2.94312 20.5 4.93437C18.9062 2.94312 17.5187 2 15.4688 2C12.7313 2 10.5 4.25938 10.5 7C10.5 7.7125 10.6566 8.38687 10.9277 9H6.5C3.18625 9 0.5 12.0294 0.5 17C0.5 21.9706 3.18625 26 6.5 26L16.5 23.8569V28.9981C16.5 29.1844 16.5597 29.3431 16.6416 29.4859C16.6646 29.5262 16.6903 29.5582 16.7183 29.5943C16.7961 29.6951 16.8876 29.7772 16.9957 29.8414C17.0274 29.8602 17.0521 29.8836 17.0856 29.899C17.2187 29.9625 17.3563 30 17.5063 30C17.5211 30 17.536 29.9937 17.5509 29.9927C17.5724 29.9917 17.5917 29.9853 17.6132 29.9829C17.7812 29.9644 17.9495 29.9128 18.1023 29.7981L20.5 27.9438L22.9 29.7425C23.0528 29.8573 23.2212 29.9088 23.3891 29.9273C23.4106 29.9298 23.4299 29.9361 23.4514 29.9371C23.4688 29.9937 23.4812 30 23.4937 30C23.6406 30 23.7807 29.96 23.9121 29.8992C23.9456 29.8838 23.9705 29.8604 24.0023 29.8413C24.1104 29.7769 24.2019 29.6953 24.2797 29.5943C24.3075 29.5581 24.333 29.5264 24.3559 29.4863C24.4375 29.3437 24.5 29.1313 24.5 28.9438V23.8213L34.2062 26C37.6812 26 40.5 21.9688 40.5 17C40.5 12.0312 37.6812 9 34.2062 9ZM25.5312 5.02938C26.6187 5.02938 27.5 5.91188 27.5 7C27.5 8.08812 26.6181 8.97062 25.5294 8.97062H21.2875C23.825 5.19187 24.55 5.02938 25.5312 5.02938ZM15.4688 5.02938C16.4494 5.02938 17.1731 5.19187 19.71 8.97062H15.4688C14.3813 8.96875 13.5 8.0875 13.5 7C13.5 5.9125 14.3813 5.02938 15.4688 5.02938ZM15.8687 20.925L6.28125 22.9788C5.08063 22.7313 3.5 20.4562 3.5 17C3.5 14.0563 4.73375 12 6.5 12H15.5375L15.5188 11.9688H16.5V20.7875L15.8687 20.925ZM34.4375 22.9813L24.5 20.8062V11.9688H25.4781L25.4625 12H34.2C36.175 12 37.5 14.0062 37.5 17C37.5 20.2625 35.9312 22.7375 34.4375 22.9813Z" fill="#0A253D"/>
</g>
<defs>
<clipPath id="clip0_180_683">
<rect width="40" height="32" fill="white" transform="translate(0.5)"/>
</clipPath>
</defs>
</svg>
