<svg width="25" height="32" viewBox="0 0 25 32" fill="none" xmlns="http://www.w3.org/2000/svg">
<path d="M6.57006 22.6644C6.02694 22.1213 6.31006 22.2744 5.00008 21.9238C4.40571 21.7644 3.88321 21.4582 3.41072 21.0913L0.575123 28.0437C0.300751 28.7168 0.813245 29.448 1.53949 29.4205L4.83258 29.2949L7.09756 31.6874C7.59755 32.2149 8.47504 32.0505 8.74941 31.3774L12.0025 23.4013C11.325 23.7788 10.5731 24 9.79565 24C8.57691 24 7.43193 23.5257 6.57006 22.6644ZM24.4249 28.0437L21.5893 21.0913C21.1168 21.4588 20.5943 21.7644 19.9999 21.9238C18.6831 22.2763 18.9718 22.1226 18.4299 22.6644C17.5681 23.5257 16.4225 24 15.2037 24C14.4262 24 13.6744 23.7782 12.9969 23.4013L16.25 31.3774C16.5243 32.0505 17.4025 32.2149 17.9018 31.6874L20.1674 29.2949L23.4605 29.4205C24.1868 29.448 24.6993 28.7162 24.4249 28.0437ZM16.9375 21.2501C17.8924 20.2782 18.0018 20.362 19.3618 19.9914C20.2299 19.7545 20.9087 19.0639 21.1412 18.1801C21.6087 16.4052 21.4874 16.6195 22.763 15.3208C23.3986 14.674 23.6468 13.7309 23.4143 12.8471C22.9474 11.0734 22.9468 11.3209 23.4143 9.54531C23.6468 8.66158 23.3986 7.71848 22.763 7.07161C21.4874 5.77289 21.6087 5.98663 21.1412 4.2123C20.9087 3.32856 20.2299 2.63795 19.3618 2.40108C17.6193 1.92547 17.8293 2.04984 16.5525 0.750489C15.9168 0.103627 14.99 -0.149493 14.1219 0.0873772C12.38 0.562368 12.6231 0.562993 10.8781 0.0873772C10.01 -0.149493 9.08316 0.103002 8.44754 0.750489C7.17193 2.04921 7.38193 1.92547 5.63882 2.40108C4.7707 2.63795 4.09196 3.32856 3.85946 4.2123C3.39259 5.98663 3.51322 5.77289 2.23761 7.07161C1.60199 7.71848 1.35324 8.66158 1.58636 9.54531C2.05323 11.3178 2.05386 11.0703 1.58636 12.8465C1.35386 13.7302 1.60199 14.6733 2.23761 15.3208C3.51322 16.6195 3.39197 16.4052 3.85946 18.1801C4.09196 19.0639 4.7707 19.7545 5.63882 19.9914C7.03756 20.3726 7.14193 20.3126 8.06255 21.2501C8.88941 22.0919 10.1775 22.2426 11.1713 21.6138C11.5686 21.3615 12.0296 21.2276 12.5003 21.2276C12.971 21.2276 13.432 21.3615 13.8294 21.6138C14.8225 22.2426 16.1106 22.0919 16.9375 21.2501ZM6.60381 10.9978C6.60381 7.68348 9.24378 4.99665 12.5 4.99665C15.7562 4.99665 18.3962 7.68348 18.3962 10.9978C18.3962 14.3121 15.7562 16.9989 12.5 16.9989C9.24378 16.9989 6.60381 14.3121 6.60381 10.9978Z" fill="#0A253D"/>
</svg>
