<svg width="41" height="32" viewBox="0 0 41 32" fill="none" xmlns="http://www.w3.org/2000/svg">
<g clip-path="url(#clip0_180_716)">
<path d="M20.4937 20C24.0819 20 26.9375 17.09 26.9375 13.5C26.9375 9.91 24.0287 7 20.4937 7C16.9056 7 14.05 9.91 14.05 13.5C13.9938 17.0875 16.9062 20 20.4937 20ZM20.4937 10C22.4219 10 23.9912 11.57 23.9912 13.5C23.9912 15.43 22.4187 17 20.4937 17C18.5687 17 16.9937 15.4312 16.9937 13.5C16.9937 11.5688 18.5625 10 20.4937 10ZM32.5 10C35.2613 10 37.5 7.76125 37.5 5C37.5 2.23875 35.2625 0 32.5 0C29.7387 0 27.5 2.23875 27.5 5C27.5 7.76125 29.7375 10 32.5 10ZM23.6187 22H17.3813C12.475 22 8.5 25.7312 8.5 30.3312C8.5 31.2562 9.29375 32 10.275 32H30.725C31.7063 32 32.5 31.2562 32.5 30.3312C32.5 25.7312 28.525 22 23.6187 22ZM11.6313 29C12.2856 26.7025 14.5912 25 17.3275 25H23.6187C26.3544 25 28.66 26.7025 29.315 29H11.6313ZM34.9938 12H31.1287C30.3287 12 29.5738 12.1898 28.8875 12.515C28.925 12.8438 28.9875 13.1625 28.9875 13.5C28.9875 15.6069 28.1888 17.5131 26.915 19H39.3963C40.0063 19 40.5 18.475 40.5 17.8312C40.5 14.6125 38.0375 12 34.9938 12ZM11.9937 13.5C11.9937 13.1594 12.0552 12.8356 12.0943 12.5056C11.4125 12.1312 10.6625 12 9.86875 12H6.005C2.965 12 0.5 14.6125 0.5 17.8312C0.5 18.475 0.992938 19 1.60125 19H14.07C12.7937 17.5125 11.9937 15.6063 11.9937 13.5ZM8.5 10C11.2613 10 13.5 7.76125 13.5 5C13.5 2.23875 11.2625 0 8.5 0C5.73875 0 3.5 2.23875 3.5 5C3.5 7.76125 5.73875 10 8.5 10Z" fill="#0A253D"/>
</g>
<defs>
<clipPath id="clip0_180_716">
<rect width="40" height="32" fill="white" transform="translate(0.5)"/>
</clipPath>
</defs>
</svg>
