<svg width="40" height="32" viewBox="0 0 40 32" fill="none" xmlns="http://www.w3.org/2000/svg">
<path d="M38.9437 8.55625L21.275 2.23125C20.8937 2.07688 20.45 2 20 2C19.55 2 19.1062 2.07688 18.675 2.23L1.00312 8.55625C0.402375 8.775 0 9.35 0 10C0 10.65 0.402375 11.2281 1.00312 11.4431L4.75437 12.7875C4.01125 13.775 3.48813 14.9225 3.22 16.1594C2.50313 16.4625 2 17.175 2 18C2 18.6221 2.30087 19.1556 2.74625 19.5225L1.19438 28.835C1.0925 29.4437 1.5625 30 2.18062 30H5.81938C6.43731 30 6.9075 29.4451 6.80562 28.8356L5.25375 19.5231C5.69937 19.1562 6 18.5688 6 18C6 17.3569 5.67662 16.8106 5.205 16.4444C5.47075 15.3344 6.01 14.3306 6.76375 13.505L18.6763 17.7694C19.1063 17.925 19.55 18 20 18C20.45 18 20.8969 17.9232 21.3256 17.7698L38.9944 11.4447C39.6 11.225 40 10.65 40 10C40 9.35 39.6 8.775 38.9437 8.55625ZM20.3188 14.9438C20.042 15.0428 19.8064 14.9863 19.6881 14.9441L10.9688 11.825L20.2938 8.955C20.8221 8.79287 21.1162 8.23313 20.9544 7.70375C20.7922 7.17638 20.2313 6.87437 19.7038 7.04437L7.825 10.7L5.8725 10L19.6287 5.055C19.9055 4.956 20.1411 5.01227 20.2594 5.05463L34.125 10L20.3188 14.9438ZM28.2687 17.4062L29 24.4188C29 25.0813 25.9062 27 20 27C14.0938 27 11 25.08 11 24.4163L11.7325 17.41L8.8525 16.3787L8.00813 24.26C8 28.0813 14.0375 30 20 30C25.9625 30 32 28.0819 31.9937 24.2619L31.1494 16.3806L28.2687 17.4062Z" fill="#0A253D"/>
</svg>
